C:\Users\Nicos\Documents\OpenSimProjects\SprintingProject\Study1\PredictiveResults\IC_pred_Sprinting_optimum_28-October-2023__10-08-04_p02_maxVel_01___HTD_Minus_4_GRF.mot
version=1
nRows=8
nColumns=127
inDegrees=yes
endheader
time	ground_force_vx	ground_force_vy	ground_force_vz	ground_force_px	ground_force_py	ground_force_pz	ground_torque_x	ground_torque_y	ground_torque_z	1_ground_force_vx	1_ground_force_vy	1_ground_force_vz	1_ground_force_px	1_ground_force_py	1_ground_force_pz	1_ground_torque_x	1_ground_torque_y	1_ground_torque_z	2_ground_force_vx	2_ground_force_vy	2_ground_force_vz	2_ground_force_px	2_ground_force_py	2_ground_force_pz	2_ground_torque_x	2_ground_torque_y	2_ground_torque_z	3_ground_force_vx	3_ground_force_vy	3_ground_force_vz	3_ground_force_px	3_ground_force_py	3_ground_force_pz	3_ground_torque_x	3_ground_torque_y	3_ground_torque_z	4_ground_force_vx	4_ground_force_vy	4_ground_force_vz	4_ground_force_px	4_ground_force_py	4_ground_force_pz	4_ground_torque_x	4_ground_torque_y	4_ground_torque_z	5_ground_force_vx	5_ground_force_vy	5_ground_force_vz	5_ground_force_px	5_ground_force_py	5_ground_force_pz	5_ground_torque_x	5_ground_torque_y	5_ground_torque_z	6_ground_force_vx	6_ground_force_vy	6_ground_force_vz	6_ground_force_px	6_ground_force_py	6_ground_force_pz	6_ground_torque_x	6_ground_torque_y	6_ground_torque_z	7_ground_force_vx	7_ground_force_vy	7_ground_force_vz	7_ground_force_px	7_ground_force_py	7_ground_force_pz	7_ground_torque_x	7_ground_torque_y	7_ground_torque_z	8_ground_force_vx	8_ground_force_vy	8_ground_force_vz	8_ground_force_px	8_ground_force_py	8_ground_force_pz	8_ground_torque_x	8_ground_torque_y	8_ground_torque_z	9_ground_force_vx	9_ground_force_vy	9_ground_force_vz	9_ground_force_px	9_ground_force_py	9_ground_force_pz	9_ground_torque_x	9_ground_torque_y	9_ground_torque_z	10_ground_force_vx	10_ground_force_vy	10_ground_force_vz	10_ground_force_px	10_ground_force_py	10_ground_force_pz	10_ground_torque_x	10_ground_torque_y	10_ground_torque_z	11_ground_force_vx	11_ground_force_vy	11_ground_force_vz	11_ground_force_px	11_ground_force_py	11_ground_force_pz	11_ground_torque_x	11_ground_torque_y	11_ground_torque_z	12_ground_force_vx	12_ground_force_vy	12_ground_force_vz	12_ground_force_px	12_ground_force_py	12_ground_force_pz	12_ground_torque_x	12_ground_torque_y	12_ground_torque_z	13_ground_force_vx	13_ground_force_vy	13_ground_force_vz	13_ground_force_px	13_ground_force_py	13_ground_force_pz	13_ground_torque_x	13_ground_torque_y	13_ground_torque_z
0.056000	-70.070174	37.711998	13.653609	0.335612	-0.001656	0.438540	0.000000	0.000000	0.000000	-2.409129	1.336520	0.637830	0.292337	0.003542	0.460595	0.000000	0.000000	0.000000	-0.190813	0.099480	0.044265	0.263423	0.006366	0.453867	0.000000	0.000000	0.000000	-1.647499	0.839510	0.368628	0.266089	0.004071	0.431770	0.000000	0.000000	0.000000	-0.000004	0.000002	0.000001	0.179790	0.016440	0.485873	0.000000	0.000000	0.000000	-0.023991	0.012482	0.006336	0.234040	0.008439	0.449461	0.000000	0.000000	0.000000	-0.000003	0.000002	0.000001	0.116505	0.016731	0.431837	0.000000	0.000000	0.000000	-0.000000	0.000000	0.000000	-0.448268	0.212419	0.094787	0.000000	0.000000	0.000000	-0.000000	0.000000	0.000000	-0.437038	0.235749	0.081980	0.000000	0.000000	0.000000	-0.000000	0.000000	0.000000	-0.431549	0.248821	0.093229	0.000000	0.000000	0.000000	-0.000000	0.000000	0.000000	-0.437673	0.245449	0.114050	0.000000	0.000000	0.000000	-0.000000	0.000000	0.000000	-0.412265	0.293077	0.078449	0.000000	0.000000	0.000000	-0.000000	0.000000	0.000000	-0.428865	0.262914	0.103147	0.000000	0.000000	0.000000	-0.000000	0.000000	0.000000	-0.418126	0.319285	0.142817	0.000000	0.000000	0.000000
0.056602	-107.797663	58.092293	18.805913	0.338772	-0.002455	0.438035	0.000000	0.000000	0.000000	-4.552618	2.531888	1.125009	0.295399	0.002721	0.459919	0.000000	0.000000	0.000000	-0.403967	0.210678	0.086350	0.266626	0.005580	0.453163	0.000000	0.000000	0.000000	-3.132388	1.595300	0.643061	0.269386	0.003299	0.431071	0.000000	0.000000	0.000000	-0.000011	0.000006	0.000004	0.182824	0.015539	0.484872	0.000000	0.000000	0.000000	-0.054939	0.028593	0.013582	0.237249	0.007621	0.448650	0.000000	0.000000	0.000000	-0.000009	0.000005	0.000004	0.119745	0.015787	0.430596	0.000000	0.000000	0.000000	-0.000000	0.000000	0.000000	-0.437732	0.212338	0.093976	0.000000	0.000000	0.000000	-0.000000	0.000000	0.000000	-0.426795	0.235711	0.081232	0.000000	0.000000	0.000000	-0.000000	0.000000	0.000000	-0.421629	0.248863	0.092658	0.000000	0.000000	0.000000	-0.000000	0.000000	0.000000	-0.427767	0.245463	0.113456	0.000000	0.000000	0.000000	-0.000000	0.000000	0.000000	-0.402713	0.293173	0.078044	0.000000	0.000000	0.000000	-0.000000	0.000000	0.000000	-0.419093	0.262954	0.102621	0.000000	0.000000	0.000000	-0.000000	0.000000	0.000000	-0.408949	0.319321	0.142474	0.000000	0.000000	0.000000
0.058505	-241.322060	132.568875	22.769035	0.348601	-0.004750	0.436907	0.000000	0.000000	0.000000	-17.275574	9.831145	3.063346	0.304879	0.000342	0.458166	0.000000	0.000000	0.000000	-2.994708	1.595780	0.452285	0.276571	0.003274	0.451312	0.000000	0.000000	0.000000	-13.580157	7.039659	1.922975	0.279664	0.001010	0.429257	0.000000	0.000000	0.000000	-0.000219	0.000123	0.000062	0.192167	0.012802	0.481932	0.000000	0.000000	0.000000	-0.581307	0.308932	0.110930	0.247216	0.005166	0.446418	0.000000	0.000000	0.000000	-0.000261	0.000138	0.000091	0.129794	0.012733	0.426844	0.000000	0.000000	0.000000	-0.000000	0.000000	0.000000	-0.404440	0.212066	0.091514	0.000000	0.000000	0.000000	-0.000000	0.000000	0.000000	-0.394415	0.235566	0.078956	0.000000	0.000000	0.000000	-0.000000	0.000000	0.000000	-0.390235	0.248938	0.090881	0.000000	0.000000	0.000000	-0.000000	0.000000	0.000000	-0.396406	0.245449	0.111610	0.000000	0.000000	0.000000	-0.000000	0.000000	0.000000	-0.372515	0.293411	0.076763	0.000000	0.000000	0.000000	-0.000000	0.000000	0.000000	-0.388172	0.263025	0.100979	0.000000	0.000000	0.000000	-0.000000	0.000000	0.000000	-0.379921	0.319373	0.141372	0.000000	0.000000	0.000000
0.059884	-332.396600	187.978310	9.873377	0.355468	-0.006203	0.436556	0.000000	0.000000	0.000000	-44.942318	26.391208	5.394660	0.311457	-0.001191	0.457289	0.000000	0.000000	0.000000	-8.409364	4.651040	0.908227	0.283470	0.001750	0.450323	0.000000	0.000000	0.000000	-31.056594	16.650674	3.034297	0.286835	-0.000531	0.428316	0.000000	0.000000	0.000000	-0.001580	0.000924	0.000413	0.198574	0.010917	0.480011	0.000000	0.000000	0.000000	-2.437026	1.342979	0.374975	0.254132	0.003494	0.445115	0.000000	0.000000	0.000000	-0.002878	0.001567	0.000957	0.136781	0.010468	0.424280	0.000000	0.000000	0.000000	-0.000000	0.000000	0.000000	-0.380313	0.211852	0.089804	0.000000	0.000000	0.000000	-0.000000	0.000000	0.000000	-0.370933	0.235436	0.077373	0.000000	0.000000	0.000000	-0.000000	0.000000	0.000000	-0.367434	0.248940	0.089612	0.000000	0.000000	0.000000	-0.000000	0.000000	0.000000	-0.373622	0.245387	0.110293	0.000000	0.000000	0.000000	-0.000000	0.000000	0.000000	-0.350606	0.293526	0.075833	0.000000	0.000000	0.000000	-0.000000	0.000000	0.000000	-0.365719	0.263022	0.099802	0.000000	0.000000	0.000000	-0.000000	0.000000	0.000000	-0.358856	0.319350	0.140559	0.000000	0.000000	0.000000
0.060486	-368.155675	212.532780	0.298405	0.358360	-0.006795	0.436532	0.000000	0.000000	0.000000	-65.499551	39.297352	6.202668	0.314217	-0.001821	0.457016	0.000000	0.000000	0.000000	-11.586554	6.571912	1.051400	0.286356	0.001111	0.449984	0.000000	0.000000	0.000000	-48.075913	26.387556	3.844191	0.289847	-0.001186	0.428002	0.000000	0.000000	0.000000	-0.003567	0.002145	0.000909	0.201237	0.010119	0.479226	0.000000	0.000000	0.000000	-4.156772	2.347731	0.581032	0.257028	0.002784	0.444627	0.000000	0.000000	0.000000	-0.008019	0.004467	0.002646	0.139717	0.009474	0.423201	0.000000	0.000000	0.000000	-0.000000	0.000000	0.000000	-0.369775	0.211753	0.089072	0.000000	0.000000	0.000000	-0.000000	0.000000	0.000000	-0.360673	0.235371	0.076695	0.000000	0.000000	0.000000	-0.000000	0.000000	0.000000	-0.357465	0.248927	0.089061	0.000000	0.000000	0.000000	-0.000000	0.000000	0.000000	-0.363659	0.245347	0.109721	0.000000	0.000000	0.000000	-0.000000	0.000000	0.000000	-0.341032	0.293561	0.075426	0.000000	0.000000	0.000000	-0.000000	0.000000	0.000000	-0.355902	0.263006	0.099289	0.000000	0.000000	0.000000	-0.000000	0.000000	0.000000	-0.349649	0.319325	0.140201	0.000000	0.000000	0.000000
0.062389	-448.068639	280.900555	-34.694961	0.366955	-0.008440	0.436865	0.000000	0.000000	0.000000	-134.997411	88.285478	3.997073	0.322361	-0.003624	0.456508	0.000000	0.000000	0.000000	-31.121261	19.459978	1.575835	0.294831	-0.000786	0.449191	0.000000	0.000000	0.000000	-125.063764	75.179708	4.730276	0.298748	-0.003151	0.427311	0.000000	0.000000	0.000000	-0.039921	0.026712	0.010159	0.208979	0.007674	0.476902	0.000000	0.000000	0.000000	-13.509337	8.393744	1.498427	0.265545	0.000630	0.443336	0.000000	0.000000	0.000000	-0.185815	0.113179	0.063493	0.148399	0.006294	0.419914	0.000000	0.000000	0.000000	-0.000000	0.000000	0.000000	-0.336397	0.211403	0.086762	0.000000	0.000000	0.000000	-0.000000	0.000000	0.000000	-0.328185	0.235123	0.074547	0.000000	0.000000	0.000000	-0.000000	0.000000	0.000000	-0.325923	0.248837	0.087313	0.000000	0.000000	0.000000	-0.000000	0.000000	0.000000	-0.332136	0.245170	0.107906	0.000000	0.000000	0.000000	-0.000000	0.000000	0.000000	-0.310746	0.293617	0.074130	0.000000	0.000000	0.000000	-0.000000	0.000000	0.000000	-0.324845	0.262906	0.097661	0.000000	0.000000	0.000000	-0.000000	0.000000	0.000000	-0.320531	0.319183	0.139052	0.000000	0.000000	0.000000
0.063768	-469.394325	321.832819	-61.673591	0.372520	-0.009421	0.437416	0.000000	0.000000	0.000000	-174.398585	125.191347	-1.699713	0.327576	-0.004764	0.456402	0.000000	0.000000	0.000000	-63.256073	43.723450	2.014454	0.300225	-0.002050	0.448811	0.000000	0.000000	0.000000	-179.278350	118.358035	2.972116	0.304476	-0.004478	0.427021	0.000000	0.000000	0.000000	-0.193853	0.144838	0.053981	0.213820	0.005962	0.475314	0.000000	0.000000	0.000000	-30.227409	20.716060	3.131378	0.270980	-0.000849	0.442569	0.000000	0.000000	0.000000	-1.479393	0.988196	0.553666	0.154000	0.003958	0.417603	0.000000	0.000000	0.000000	-0.000000	0.000000	0.000000	-0.312082	0.211103	0.085070	0.000000	0.000000	0.000000	-0.000000	0.000000	0.000000	-0.304537	0.234892	0.072964	0.000000	0.000000	0.000000	-0.000000	0.000000	0.000000	-0.303020	0.248726	0.086035	0.000000	0.000000	0.000000	-0.000000	0.000000	0.000000	-0.309248	0.244995	0.106578	0.000000	0.000000	0.000000	-0.000000	0.000000	0.000000	-0.288759	0.293605	0.073182	0.000000	0.000000	0.000000	-0.000000	0.000000	0.000000	-0.302297	0.262785	0.096469	0.000000	0.000000	0.000000	-0.000000	0.000000	0.000000	-0.299404	0.319021	0.138204	0.000000	0.000000	0.000000
0.064371	-468.532134	338.580611	-74.465174	0.374739	-0.009795	0.437720	0.000000	0.000000	0.000000	-186.412604	141.284502	-5.233782	0.329637	-0.005219	0.456409	0.000000	0.000000	0.000000	-77.984618	57.055019	1.915736	0.302349	-0.002574	0.448681	0.000000	0.000000	0.000000	-198.895663	138.483943	1.546398	0.306753	-0.005031	0.426934	0.000000	0.000000	0.000000	-0.364898	0.290234	0.108605	0.215702	0.005227	0.474635	0.000000	0.000000	0.000000	-43.834631	31.755936	4.525979	0.273126	-0.001473	0.442265	0.000000	0.000000	0.000000	-3.251187	2.288207	1.291669	0.156234	0.002933	0.416604	0.000000	0.000000	0.000000	-0.000000	0.000000	0.000000	-0.301418	0.210957	0.084322	0.000000	0.000000	0.000000	-0.000000	0.000000	0.000000	-0.294175	0.234776	0.072260	0.000000	0.000000	0.000000	-0.000000	0.000000	0.000000	-0.293007	0.248666	0.085472	0.000000	0.000000	0.000000	-0.000000	0.000000	0.000000	-0.299243	0.244907	0.105992	0.000000	0.000000	0.000000	-0.000000	0.000000	0.000000	-0.279147	0.293586	0.072765	0.000000	0.000000	0.000000	-0.000000	0.000000	0.000000	-0.292440	0.262720	0.095944	0.000000	0.000000	0.000000	-0.000000	0.000000	0.000000	-0.290172	0.318935	0.137830	0.000000	0.000000	0.000000
